<?xml version="1.0" encoding="UTF-8" standalone="no"?>
<svg width="21px" height="20px" viewBox="0 0 21 20" version="1.1" xmlns="http://www.w3.org/2000/svg" xmlns:xlink="http://www.w3.org/1999/xlink" xmlns:sketch="http://www.bohemiancoding.com/sketch/ns">
    <!-- Generator: Sketch 3.4.2 (15857) - http://www.bohemiancoding.com/sketch -->
    <title>fat logo</title>
    <desc>Created with Sketch.</desc>
    <defs></defs>
    <g id="Page-1" stroke="none" stroke-width="1" fill="none" fill-rule="evenodd" sketch:type="MSPage">
        <g id="speakbridge.io-projects-in-source-sans-pro" sketch:type="MSArtboardGroup" transform="translate(-31.000000, -13.000000)" fill="#FB4F0A">
            <g id="Bridge-Copy-+-fat-logo-+-Rectangle-5" sketch:type="MSLayerGroup" transform="translate(31.000000, 13.000000)">
                <g id="fat-logo" sketch:type="MSShapeGroup">
                    <g id="bridge">
                        <g id="Page-1">
                            <g id="mark">
                                <path d="M0,0 L0,4.02440945 L5.62916667,7.71968504 L14.984375,7.71968504 L21,4.00944882 L21,0.0149606299 L20.9197917,0.142125984 L14.0510417,4.50314961 L6.5625,4.50314961 L0,0 L0,0 Z" id="Shape"></path>
                                <path d="M6.5625,14.4818897 L14.0510417,14.4818897 L20.9197917,18.8429132 L21,18.9775588 L21,14.9830708 L14.984375,11.2653543 L5.62916667,11.2653543 L0,14.9606298 L0,18.9850391 L6.5625,14.4818897 L6.5625,14.4818897 Z" id="Shape"></path>
                            </g>
                        </g>
                    </g>
                    <g id="bridge-copy" transform="translate(0.000000, 1.000000)">
                        <g id="Page-1">
                            <g id="mark">
                                <path d="M0,0 L0,4.02440945 L5.62916667,7.71968504 L14.984375,7.71968504 L21,4.00944882 L21,0.0149606299 L20.9197917,0.142125984 L14.0510417,4.50314961 L6.5625,4.50314961 L0,0 L0,0 Z" id="Shape"></path>
                                <path d="M6.5625,14.4818897 L14.0510417,14.4818897 L20.9197917,18.8429132 L21,18.9775588 L21,14.9830708 L14.984375,11.2653543 L5.62916667,11.2653543 L0,14.9606298 L0,18.9850391 L6.5625,14.4818897 L6.5625,14.4818897 Z" id="Shape"></path>
                            </g>
                        </g>
                    </g>
                </g>
            </g>
        </g>
    </g>
</svg>