<?xml version="1.0" encoding="UTF-8" standalone="no"?>
<svg width="25px" height="45px" viewBox="0 0 25 45" version="1.1" xmlns="http://www.w3.org/2000/svg" xmlns:xlink="http://www.w3.org/1999/xlink" xmlns:sketch="http://www.bohemiancoding.com/sketch/ns">
    <!-- Generator: Sketch 3.4.2 (15857) - http://www.bohemiancoding.com/sketch -->
    <title>Page 1</title>
    <desc>Created with Sketch.</desc>
    <defs></defs>
    <g id="Page-1" stroke="none" stroke-width="1" fill="none" fill-rule="evenodd" sketch:type="MSPage">
        <path d="M14.875,36.023 C14.426,35.574 13.898,35.199 13.301,34.973 C12.027,34.449 10.602,34.449 9.324,34.973 C8.723,35.199 8.199,35.574 7.75,36.023 C7.301,36.473 6.926,37 6.699,37.598 C6.473,38.199 6.324,38.871 6.324,39.547 C6.324,40.223 6.473,40.898 6.699,41.496 C6.926,42.098 7.301,42.621 7.75,43.07 C8.199,43.52 8.727,43.895 9.324,44.121 C9.926,44.348 10.598,44.496 11.273,44.496 C11.949,44.496 12.625,44.348 13.223,44.121 C13.824,43.895 14.348,43.52 14.797,43.07 C15.246,42.621 15.621,42.094 15.848,41.496 C16.148,40.895 16.223,40.223 16.223,39.547 C16.223,38.871 16.074,38.195 15.848,37.598 C15.625,36.926 15.324,36.398 14.875,36.023 L14.875,36.023 Z M23.426,7 C22.824,5.727 22,4.602 20.949,3.699 C19.898,2.801 18.625,2.125 17.199,1.598 C15.773,1.148 14.199,0.848 12.473,0.848 C11.199,0.848 9.996,0.996 8.949,1.223 C7.824,1.449 6.848,1.746 5.875,2.199 C4.977,2.574 4.074,3.098 3.25,3.625 C2.426,4.148 1.676,4.75 1.074,5.352 L0.625,5.727 L2.801,9.102 C3.25,9.926 3.926,10.301 4.902,10.301 C5.352,10.301 5.801,10.152 6.254,9.852 C6.629,9.625 7.004,9.328 7.527,9.102 C7.977,8.801 8.578,8.578 9.328,8.352 C10.004,8.125 10.902,8.051 11.879,8.051 C12.555,8.051 13.152,8.125 13.754,8.352 C14.277,8.5 14.805,8.801 15.18,9.102 C15.555,9.402 15.855,9.852 16.078,10.301 C16.305,10.75 16.379,11.277 16.379,11.875 C16.379,12.773 16.23,13.602 15.855,14.273 C15.48,14.949 14.957,15.625 14.43,16.148 C13.828,16.75 13.156,17.273 12.48,17.797 C11.805,18.32 11.129,18.848 10.379,19.445 C9.777,19.969 9.18,20.57 8.73,21.32 C8.281,21.996 8.055,22.82 8.055,23.871 L8.055,24.098 C8.055,24.246 7.98,24.324 8.055,24.398 L8.5,29.5 L14.5,29.5 L15.25,24.699 C15.324,24.176 15.551,23.723 15.926,23.348 C16.375,22.898 16.977,22.449 17.574,21.922 C18.25,21.398 18.926,20.871 19.676,20.348 C20.426,19.746 21.176,18.996 21.852,18.172 C22.527,17.348 23.125,16.371 23.578,15.246 C24.027,14.121 24.254,12.77 24.254,11.195 C24.324,9.699 24.023,8.273 23.426,7 L23.426,7 Z" fill="#FFFFFF" sketch:type="MSShapeGroup"></path>
    </g>
</svg>