<?xml version="1.0" encoding="UTF-8" standalone="no"?>
<svg width="72px" height="53px" viewBox="0 0 72 53" version="1.1" xmlns="http://www.w3.org/2000/svg" xmlns:xlink="http://www.w3.org/1999/xlink" xmlns:sketch="http://www.bohemiancoding.com/sketch/ns">
    <!-- Generator: Sketch 3.4.2 (15857) - http://www.bohemiancoding.com/sketch -->
    <title>mail</title>
    <desc>Created with Sketch.</desc>
    <defs></defs>
    <g id="Page-1" stroke="none" stroke-width="1" fill="none" fill-rule="evenodd" sketch:type="MSPage">
        <g id="mail" sketch:type="MSLayerGroup" fill="#FFFFFF">
            <path d="M36,26.4 L70.36128,1.1664 C69.59232,0.48768 68.59488,0.06336 67.48896,0.06336 L4.51104,0.06336 C3.40512,0.06336 2.40768,0.48768 1.63872,1.1664 L36,26.4 Z" id="Fill-1" sketch:type="MSShapeGroup"></path>
            <path d="M21.33792,23.28768 L0.1392,7.71744 L0.1392,38.85408 L21.33792,23.28768 Z" id="Fill-2" sketch:type="MSShapeGroup"></path>
            <path d="M50.6592,23.28384 L71.8608,38.85792 L71.8608,7.71744 L50.6592,23.28384 Z" id="Fill-3" sketch:type="MSShapeGroup"></path>
            <path d="M45.45024,27.11232 L36,34.05408 L26.54976,27.11232 L0.1392,46.5072 L0.1392,48.36384 C0.1392,50.7792 2.09664,52.73664 4.51104,52.73664 L67.48896,52.73664 C69.90336,52.73664 71.8608,50.7792 71.8608,48.36384 L71.8608,46.5072 L45.45024,27.11232 Z" id="Fill-4" sketch:type="MSShapeGroup"></path>
        </g>
    </g>
</svg>