<?xml version="1.0" encoding="UTF-8" standalone="no"?>
<svg width="29px" height="24px" viewBox="0 0 29 24" version="1.1" xmlns="http://www.w3.org/2000/svg" xmlns:xlink="http://www.w3.org/1999/xlink" xmlns:sketch="http://www.bohemiancoding.com/sketch/ns">
    <!-- Generator: Sketch 3.4.2 (15857) - http://www.bohemiancoding.com/sketch -->
    <title>twitter logo</title>
    <desc>Created with Sketch.</desc>
    <defs>
        <path id="path-1" d="M0.00635036496,0.0881430257 L28.935438,0.0881430257 L28.935438,23.9058469 L0.00635036496,23.9058469"></path>
    </defs>
    <g id="Page-1" stroke="none" stroke-width="1" fill="none" fill-rule="evenodd" sketch:type="MSPage">
        <g id="twitter-logo" sketch:type="MSLayerGroup">
            <mask id="mask-2" sketch:name="Clip 2" fill="white">
                <use xlink:href="#path-1"></use>
            </mask>
            <g id="Clip-2"></g>
            <path d="M28.935438,2.90839816 C27.8707993,3.386751 26.7266752,3.71004933 25.5258212,3.85545315 C26.7515474,3.11106278 27.6927774,1.93239108 28.1360328,0.528000315 C26.9890511,1.21716726 25.7185547,1.7177167 24.3663504,1.98750728 C23.2834015,0.818593502 21.7405803,0.0881430257 20.0331788,0.0881430257 C16.7545912,0.0881430257 14.0965401,2.78100897 14.0965401,6.10245693 C14.0965401,6.57383982 14.1491423,7.03289128 14.2503248,7.47307025 C9.3165146,7.22225938 4.94227737,4.82781441 2.01433577,1.18907301 C1.50334307,2.07736598 1.21059124,3.11052663 1.21059124,4.21274337 C1.21059124,6.29933113 2.25871898,8.14025505 3.85160219,9.21877398 C2.87840876,9.18757006 1.96310949,8.91702887 1.16264599,8.46655582 C1.16222263,8.49164763 1.16222263,8.51684667 1.16222263,8.54215294 C1.16222263,11.4562343 3.2085219,13.8871374 5.92425547,14.4395862 C5.42606934,14.577055 4.90163504,14.6505075 4.36016058,14.6505075 C3.97765693,14.6505075 3.60573723,14.6128698 3.24334307,14.5426342 C3.99871898,16.9321466 6.19107664,18.6709876 8.78879927,18.7195627 C6.75710584,20.332623 4.19737956,21.294154 1.41613139,21.294154 C0.93699635,21.294154 0.464423358,21.2657381 0,21.210193 C2.62714599,22.9166505 5.74760949,23.9122807 9.10007299,23.9122807 C20.0193139,23.9122807 25.9903504,14.7476579 25.9903504,6.79988058 C25.9903504,6.53909732 25.984635,6.27970805 25.9732044,6.02182 C27.1329927,5.17384549 28.1395255,4.11452073 28.935438,2.90839816" id="Fill-1" fill="#FFFFFF" sketch:type="MSShapeGroup" mask="url(#mask-2)"></path>
        </g>
    </g>
</svg>